<?xml version="1.0" encoding="utf-8"?>
<svg xmlns="http://www.w3.org/2000/svg" viewBox="79.04 110.468 322.356 220.936" width="322.356px" height="220.936px"><g id="object-9" transform="matrix(1, 0, 0, 1, -3.552713678800501e-15, 0)"><path d="M 167.168 264.386 C 163.032 264.386 159.882 263.427 157.714 261.508 C 155.547 259.589 154.067 256.96 153.273 253.618 C 152.479 250.276 152.082 246.488 152.082 242.253 C 152.082 237.72 152.528 234.008 153.421 231.113 C 154.315 228.218 155.845 225.844 158.012 223.991 C 160.179 222.139 163.165 220.567 166.97 219.277 L 177.986 215.506 L 177.986 207.863 C 177.986 203.86 176.68 201.858 174.066 201.858 C 171.684 201.858 170.493 203.48 170.493 206.722 L 170.493 211.188 L 153.223 211.188 C 153.191 210.924 153.174 210.584 153.174 210.171 C 153.174 209.757 153.174 209.286 153.174 208.756 C 153.174 201.346 154.918 196.094 158.409 193.001 C 161.899 189.908 167.432 188.361 175.009 188.361 C 178.979 188.361 182.535 189.064 185.678 190.47 C 188.822 191.876 191.311 193.951 193.146 196.698 C 194.983 199.444 195.901 202.835 195.901 206.871 L 195.901 263.592 L 178.234 263.592 L 178.234 254.758 C 177.374 257.868 175.951 260.251 173.967 261.905 C 171.982 263.559 169.716 264.386 167.168 264.386 Z M 174.165 250.59 C 175.62 250.59 176.613 249.978 177.142 248.754 C 177.672 247.531 177.936 246.207 177.936 244.784 L 177.936 224.041 C 175.489 225.034 173.586 226.282 172.229 227.788 C 170.873 229.293 170.195 231.501 170.195 234.413 L 170.195 243.99 C 170.195 248.39 171.519 250.59 174.165 250.59 Z" style="text-wrap-mode: nowrap; fill: rgba(14, 11, 11, 0.56); stroke: rgb(248, 249, 244); stroke-opacity: 0.5; stroke-width: 0.5px;" id="object-0"/><path d="M 88.419 263.592 L 79.04 176.252 L 96.111 176.252 L 100.924 231.386 L 105.837 176.252 L 122.114 176.252 L 126.778 231.386 L 131.444 176.252 L 148.713 176.252 L 139.185 263.592 L 118.244 263.592 L 113.876 221.559 L 109.708 263.592 L 88.419 263.592 Z" style="text-wrap-mode: nowrap; fill: rgba(14, 11, 11, 0.56); stroke: rgb(248, 249, 244); stroke-opacity: 0.5; stroke-width: 0.5px;" id="object-1"/><path d="M 379.461 250.54 C 381.314 250.54 382.43 249.613 382.812 247.761 C 383.192 245.909 383.382 243.627 383.382 240.914 L 383.382 211.833 C 383.382 209.087 383.192 206.797 382.812 204.96 C 382.43 203.125 381.314 202.206 379.461 202.206 C 377.542 202.206 376.36 203.141 375.914 205.01 C 375.467 206.879 375.243 209.153 375.243 211.833 L 375.243 240.914 C 375.243 243.593 375.467 245.869 375.914 247.737 C 376.36 249.606 377.542 250.54 379.461 250.54 Z M 357.18 275.998 L 357.18 189.154 L 375.243 189.154 L 375.243 197.095 C 376.335 194.348 377.848 192.207 379.784 190.668 C 381.72 189.129 384.49 188.361 388.097 188.361 C 392.959 188.361 396.392 190.13 398.394 193.671 C 400.395 197.211 401.396 201.842 401.396 207.565 L 401.396 244.189 C 401.396 247.993 400.858 251.426 399.783 254.486 C 398.708 257.546 397.021 259.961 394.722 261.732 C 392.422 263.501 389.42 264.386 385.715 264.386 C 380.884 264.386 377.394 261.475 375.243 255.652 L 375.243 275.998 L 357.18 275.998 Z" style="text-wrap-mode: nowrap; fill: rgba(37, 95, 19, 0.56); stroke: rgb(248, 249, 244); stroke-opacity: 0.5; stroke-width: 0.5px;" id="object-2"/><path d="M 320.803 264.386 C 316.833 264.386 313.798 263.559 311.697 261.905 C 309.596 260.25 308.166 257.943 307.404 254.982 C 306.644 252.02 306.264 248.555 306.264 244.586 L 306.264 189.154 L 324.128 189.154 L 324.128 242.502 C 324.128 245.479 324.36 247.555 324.823 248.73 C 325.286 249.904 326.377 250.491 328.098 250.491 C 329.951 250.491 331.117 249.664 331.596 248.01 C 332.076 246.355 332.316 244.222 332.316 241.608 L 332.316 189.154 L 350.032 189.154 L 350.032 263.592 L 332.267 263.592 L 332.267 255.652 C 331.142 258.497 329.793 260.664 328.222 262.152 C 326.651 263.641 324.178 264.386 320.803 264.386 Z" style="text-wrap-mode: nowrap; fill: rgba(37, 95, 19, 0.56); stroke: rgb(248, 249, 244); stroke-opacity: 0.5; stroke-width: 0.5px;" id="object-3"/><path d="M 262.793 263.592 L 262.793 247.712 L 282.792 192.33 L 264.729 192.33 L 264.729 176.252 L 301.202 176.252 L 301.202 191.536 L 280.856 247.514 L 300.358 247.514 L 300.358 263.592 L 262.793 263.592 Z" style="text-wrap-mode: nowrap; fill: rgb(255, 219, 1); stroke-width: 0px; paint-order: stroke;" id="object-4"/><path d="M 249.047 264.386 C 244.25 264.386 241.016 263.368 239.346 261.335 C 237.675 259.3 236.84 256.181 236.84 251.98 L 236.84 205.581 L 231.827 205.581 L 231.827 192.032 L 236.84 192.032 L 236.84 176.252 L 254.109 176.252 L 254.109 192.032 L 259.121 192.032 L 259.121 205.581 L 254.109 205.581 L 254.109 247.812 C 254.109 249.035 254.307 249.894 254.704 250.392 C 255.102 250.888 255.863 251.137 256.988 251.137 C 257.782 251.137 258.493 251.07 259.121 250.938 L 259.121 263.046 C 258.724 263.177 257.484 263.434 255.4 263.816 C 253.316 264.196 251.198 264.386 249.047 264.386 Z" style="text-wrap-mode: nowrap; fill: rgba(14, 11, 11, 0.56); stroke: rgb(248, 249, 244); stroke-opacity: 0.5; stroke-width: 0.5px;" id="object-5"/><path d="M 218.033 264.386 C 213.236 264.386 210.002 263.368 208.331 261.335 C 206.661 259.3 205.825 256.181 205.825 251.98 L 205.825 205.581 L 200.813 205.581 L 200.813 192.032 L 205.825 192.032 L 205.825 176.252 L 223.094 176.252 L 223.094 192.032 L 228.106 192.032 L 228.106 205.581 L 223.094 205.581 L 223.094 247.812 C 223.094 249.035 223.293 249.894 223.69 250.392 C 224.087 250.888 224.847 251.137 225.972 251.137 C 226.766 251.137 227.478 251.07 228.106 250.938 L 228.106 263.046 C 227.709 263.177 226.468 263.434 224.384 263.816 C 222.3 264.196 220.184 264.386 218.033 264.386 Z" style="text-wrap-mode: nowrap; fill: rgba(14, 11, 11, 0.56); stroke: rgb(248, 249, 244); stroke-opacity: 0.5; stroke-width: 0.5px;" id="object-6"/><polygon style="fill: rgb(255, 219, 1);" points="264.887 176.618 297.155 110.468 280.709 176.576" id="object-7"/><polygon style="fill: rgb(255, 219, 1);" points="268.519 331.404 300.787 263.633 284.341 331.361" id="object-8" transform="matrix(-1, 0, 0, -1, 569.306, 595.037012)"/></g></svg>